<?xml version="1.0" encoding="utf-8"?>
<!-- Generator: Adobe Illustrator 25.2.1, SVG Export Plug-In . SVG Version: 6.00 Build 0)  -->
<svg version="1.1" id="Layer_1" xmlns="http://www.w3.org/2000/svg" xmlns:xlink="http://www.w3.org/1999/xlink" x="0px" y="0px"
	 viewBox="0 0 154 144" enable-background="new 0 0 154 144" xml:space="preserve">
<path fill="#FFFFFF" d="M143.18,107.12H43.91c-0.91,0-1.77-0.44-2.3-1.19c-0.53-0.75-0.66-1.7-0.35-2.56l8.6-24.28L25.1,7.58H3.99
	c-1.55,0-2.81-1.26-2.81-2.81s1.26-2.81,2.81-2.81H27.1c1.2,0,2.27,0.76,2.66,1.89L55.5,78.17c0.21,0.6,0.21,1.26-0.01,1.86
	l-7.6,21.46h95.29c1.55,0,2.81,1.26,2.81,2.81S144.74,107.12,143.18,107.12z"/>
<path fill="#FFFFFF" d="M133.2,82.17C133.2,82.17,133.2,82.17,133.2,82.17L52.83,81.9c-1.55-0.01-2.81-1.27-2.8-2.82
	c0.01-1.55,1.26-2.8,2.81-2.8c0,0,0.01,0,0.01,0l78.27,0.26l15.11-50.04L33.68,26.58c0,0,0,0,0,0c-1.55,0-2.81-1.26-2.81-2.81
	c0-1.55,1.26-2.81,2.81-2.81l116.33-0.09c0,0,0,0,0,0c0.89,0,1.73,0.42,2.26,1.13c0.53,0.71,0.69,1.64,0.44,2.49L135.9,80.17
	C135.54,81.35,134.44,82.17,133.2,82.17z"/>
<path fill="#FFFFFF" d="M67.02,142.05c-8.36,0-15.16-6.8-15.16-15.16s6.8-15.16,15.16-15.16s15.16,6.8,15.16,15.16
	S75.38,142.05,67.02,142.05z M67.02,117.36c-5.26,0-9.53,4.28-9.53,9.53c0,5.26,4.28,9.53,9.53,9.53s9.53-4.28,9.53-9.53
	C76.55,121.63,72.28,117.36,67.02,117.36z"/>
<path fill="#FFFFFF" d="M129.84,142.05c-8.36,0-15.16-6.8-15.16-15.16s6.8-15.16,15.16-15.16c8.36,0,15.16,6.8,15.16,15.16
	S138.2,142.05,129.84,142.05z M129.84,117.36c-5.26,0-9.53,4.28-9.53,9.53c0,5.26,4.28,9.53,9.53,9.53c5.26,0,9.53-4.28,9.53-9.53
	C139.37,121.63,135.09,117.36,129.84,117.36z"/>
</svg>
