<?xml version="1.0" encoding="utf-8"?>
<!-- Generator: Adobe Illustrator 25.2.1, SVG Export Plug-In . SVG Version: 6.00 Build 0)  -->
<svg version="1.1" id="Layer_1" xmlns="http://www.w3.org/2000/svg" xmlns:xlink="http://www.w3.org/1999/xlink" x="0px" y="0px"
	 viewBox="0 0 171.2 71.8" style="enable-background:new 0 0 171.2 71.8;" xml:space="preserve">
<style type="text/css">
	.st0{fill:#151515;stroke:#151515;stroke-width:2;stroke-linecap:round;stroke-linejoin:round;stroke-miterlimit:10;}
	.st1{fill:#151515;stroke:#151515;stroke-linecap:round;stroke-linejoin:round;stroke-miterlimit:10;}
</style>
<path class="st0" d="M67.7,19.1l0.1,15.7c-1.4,1.2-3.1,2-5,2.6c-2,0.5-3.9,0.8-5.8,0.8c-2.2,0-4.3-0.3-6.3-1c-1.9-0.7-3.6-1.8-5-3.3
	c-1.4-1.5-2.5-3.4-3.3-5.7C41.4,25.9,41,23.2,41,20c0-3.3,0.5-6.1,1.4-8.5c0.9-2.3,2.2-4.2,3.8-5.7c1.5-1.5,3.3-2.5,5.2-3.2
	c1.9-0.7,3.9-1,5.9-1c2,0,3.8,0.1,5.3,0.4c1.5,0.3,2.7,0.6,3.7,0.9l-1.4,5.8c-0.8-0.3-1.8-0.6-2.8-0.8c-1-0.2-2.4-0.3-4-0.3
	c-1.4,0-2.8,0.2-4,0.7c-1.2,0.4-2.2,1.2-3.1,2.1c-0.9,1-1.6,2.3-2,3.8c-0.5,1.5-0.7,3.4-0.7,5.6c0,2.1,0.2,3.9,0.7,5.5
	s1.1,2.8,2,3.8c0.8,1,1.8,1.7,3,2.2s2.3,0.7,3.6,0.7c0.9,0,1.7-0.1,2.6-0.3c0.8-0.2,1.5-0.5,2.1-1l0-6.6l-7.6-0.8l0-4.2L67.7,19.1z
	 M106.6,19.8c0,5.9-1.2,10.4-3.8,13.6c-2.6,3.2-6.2,4.8-11,4.8c-2.6,0-4.8-0.4-6.6-1.3c-1.9-0.9-3.4-2.1-4.7-3.7
	c-1.2-1.6-2.2-3.5-2.8-5.8c-0.6-2.2-0.9-4.7-0.9-7.5c0-5.9,1.2-10.4,3.8-13.6s6.2-4.8,11-4.8c2.5,0,4.7,0.4,6.6,1.3
	c1.9,0.9,3.4,2.1,4.7,3.7c1.2,1.6,2.2,3.5,2.8,5.8C106.3,14.6,106.6,17.1,106.6,19.8z M99.4,19.9c0-1.7-0.2-3.3-0.4-4.8
	s-0.7-2.8-1.3-3.9c-0.6-1.1-1.4-2-2.4-2.6c-1-0.6-2.2-0.9-3.6-0.9c-2.4,0-4.3,1-5.7,3s-2,5-2,9.2c0,1.8,0.2,3.4,0.5,4.9
	c0.3,1.5,0.8,2.8,1.4,3.8c0.6,1.1,1.4,1.9,2.4,2.5c1,0.6,2.1,0.9,3.5,0.9c2.4,0,4.3-1,5.7-2.9C98.8,27.2,99.4,24.1,99.4,19.9z
	 M137.8,30.6l-15.4,0.1l-0.1-29l-6.9,0l0.2,35.2l22.3-0.1L137.8,30.6z M146.7,36.9l6.9,0l-0.1-14.2l15.1-0.1l0-6.1l-15.1,0.1l0-8.7
	l16.2-0.1l0-6.1l-23.1,0.1L146.7,36.9z"/>
<path class="st0" d="M28.1,69.2V2.6 M28.1,3.6L1.3,13l26.8,6.2C28.1,19.2,28.1,3.6,28.1,3.6z"/>
<path class="st1" d="M55.8,48.8h2.4V63c0,1.3-0.2,2.4-0.5,3.3c-0.3,0.9-0.8,1.7-1.4,2.3c-0.6,0.6-1.4,1-2.2,1.3
	c-0.9,0.3-1.8,0.4-2.9,0.4c-2.5,0-4.4-0.6-5.7-1.7s-1.9-2.9-1.9-5.2V48.8h2.5v13.5c0,1.1,0.1,2,0.3,2.7s0.5,1.3,1,1.8
	c0.4,0.5,1,0.8,1.6,1s1.4,0.3,2.2,0.3c1.6,0,2.8-0.4,3.5-1.3s1.1-2.4,1.1-4.5L55.8,48.8L55.8,48.8z M64.2,49
	c0.8-0.2,1.6-0.3,2.5-0.4s1.8-0.1,2.7-0.1c0.9,0,1.9,0.1,2.8,0.3s1.8,0.5,2.6,1c0.8,0.5,1.4,1.2,1.9,2s0.8,1.9,0.8,3.3
	c0,1.3-0.2,2.4-0.7,3.3c-0.5,0.9-1.1,1.6-1.9,2.2c-0.8,0.6-1.7,1-2.7,1.2c-1,0.2-2,0.4-3.1,0.4c-0.1,0-0.3,0-0.5,0s-0.5,0-0.7,0
	s-0.5,0-0.8-0.1c-0.2,0-0.4,0-0.5-0.1v8.1h-2.5L64.2,49L64.2,49z M69.4,50.7c-0.5,0-1,0-1.5,0s-0.9,0.1-1.2,0.2v8.8
	c0.1,0,0.3,0.1,0.5,0.1c0.2,0,0.5,0,0.7,0s0.5,0,0.7,0c0.2,0,0.4,0,0.5,0c0.7,0,1.4-0.1,2.1-0.2s1.3-0.4,1.8-0.7
	c0.6-0.3,1-0.8,1.3-1.5s0.5-1.4,0.5-2.4c0-0.8-0.2-1.5-0.5-2.1c-0.3-0.6-0.7-1-1.2-1.3c-0.5-0.3-1.1-0.6-1.8-0.7
	C70.7,50.8,70,50.7,69.4,50.7z M88.6,59.4h7.2v9.4c-0.3,0.2-0.7,0.5-1.2,0.7s-0.9,0.4-1.5,0.5s-1.1,0.2-1.6,0.3
	c-0.6,0.1-1.1,0.1-1.6,0.1c-1.4,0-2.6-0.2-3.7-0.7c-1.1-0.4-2.1-1.1-2.9-2c-0.8-0.9-1.5-2.1-1.9-3.4c-0.5-1.4-0.7-3-0.7-4.9
	c0-2,0.3-3.7,0.8-5c0.6-1.4,1.3-2.5,2.2-3.4c0.9-0.9,1.9-1.5,3.1-1.9c1.1-0.4,2.3-0.6,3.4-0.6c1.2,0,2.2,0.1,3,0.2s1.5,0.3,2,0.5
	l-0.6,2.2c-1-0.5-2.4-0.7-4.2-0.7c-0.8,0-1.7,0.2-2.5,0.4c-0.8,0.3-1.6,0.8-2.3,1.5s-1.2,1.6-1.6,2.7c-0.4,1.1-0.6,2.5-0.6,4.1
	c0,1.5,0.2,2.8,0.5,3.9c0.3,1.1,0.8,2,1.4,2.7s1.4,1.3,2.2,1.6c0.9,0.4,1.8,0.5,2.8,0.5c1.3,0,2.4-0.2,3.3-0.8v-5.9l-5-0.6
	L88.6,59.4L88.6,59.4z M100.7,49c0.8-0.1,1.7-0.2,2.7-0.3s1.9-0.1,2.8-0.1c0.9,0,1.8,0.1,2.7,0.3c0.8,0.2,1.6,0.5,2.2,1
	c0.6,0.5,1.2,1.1,1.5,1.8c0.4,0.8,0.6,1.7,0.6,2.7c0,1.7-0.5,3-1.4,4c-0.9,1-2.1,1.7-3.5,2.1l1.5,1.1l5.3,8.4h-2.9l-5.9-9.2l-3-0.5
	v9.6h-2.5L100.7,49L100.7,49z M106.2,50.7c-0.3,0-0.5,0-0.8,0s-0.6,0-0.8,0s-0.5,0-0.8,0.1c-0.2,0-0.4,0-0.6,0.1v7.8h2.4
	c1.4,0,2.6-0.3,3.5-1s1.4-1.8,1.4-3.2c0-1.1-0.4-2-1.1-2.7C108.6,51.1,107.6,50.7,106.2,50.7z M128.9,64.2h-7.8l-2.1,5.9h-2.5
	l8.1-21.6h1.2l8.1,21.6h-2.7L128.9,64.2z M121.9,62h6.2l-2.4-6.5l-0.8-3.2h0l-0.8,3.3L121.9,62z M137.3,48.8
	c0.4-0.1,0.8-0.1,1.3-0.1c0.5,0,1,0,1.5-0.1c0.5,0,1,0,1.5,0s1,0,1.4,0c1.7,0,3.2,0.3,4.4,0.8c1.2,0.5,2.3,1.3,3.1,2.2
	c0.8,0.9,1.4,2.1,1.8,3.4s0.6,2.8,0.6,4.3c0,1.4-0.2,2.8-0.6,4.2c-0.4,1.3-1,2.5-1.8,3.5s-1.9,1.8-3.2,2.5c-1.3,0.6-2.9,0.9-4.7,0.9
	c-0.3,0-0.8,0-1.3,0c-0.5,0-1.1,0-1.6-0.1s-1.1-0.1-1.5-0.1c-0.5,0-0.8-0.1-1-0.1L137.3,48.8L137.3,48.8z M143.1,50.8
	c-0.3,0-0.6,0-0.9,0c-0.3,0-0.6,0-0.9,0c-0.3,0-0.6,0-0.8,0.1c-0.2,0-0.4,0-0.6,0.1v17c0.1,0,0.3,0,0.6,0.1c0.3,0,0.6,0,0.9,0
	s0.6,0,0.9,0s0.5,0,0.6,0c1.4,0,2.6-0.2,3.6-0.7c1-0.5,1.7-1.1,2.3-2s1-1.8,1.2-2.8s0.4-2.2,0.4-3.3c0-1-0.1-2-0.3-3
	c-0.2-1-0.6-1.9-1.2-2.7s-1.3-1.5-2.2-2C145.6,51,144.5,50.8,143.1,50.8z M157.9,48.8h11.6V51h-9.1v7h8.3v2.2h-8.3v7.6h9.2v2.2
	h-11.7V48.8z"/>
</svg>
